<?xml version="1.0" encoding="UTF-8"?>
<svg width="64px" height="23px" viewBox="0 0 64 23" version="1.1" xmlns="http://www.w3.org/2000/svg" xmlns:xlink="http://www.w3.org/1999/xlink">
    <!-- Generator: Sketch 50.2 (55047) - http://www.bohemiancoding.com/sketch -->
    <title>logo-white</title>
    <desc>Created with Sketch.</desc>
    <defs>
        <polygon id="path-1" points="0 0.115162086 19.9515599 0.115162086 19.9515599 22.4651163 0 22.4651163"></polygon>
        <polygon id="path-3" points="0.122569796 0.112777778 23.8227276 0.112777778 23.8227276 21.9997778 0.122569796 21.9997778"></polygon>
        <polygon id="path-5" points="0.0567969874 0.0157865169 10.9787269 0.0157865169 10.9787269 19.9792697 0.0567969874 19.9792697"></polygon>
    </defs>
    <g id="Symbols" stroke="none" stroke-width="1" fill="none" fill-rule="evenodd">
        <g id="Top-Nav-White" transform="translate(-55.000000, -48.000000)">
            <g id="Group">
                <g id="logo-white" transform="translate(55.000000, 48.000000)">
                    <g id="Group-3">
                        <mask id="mask-2" fill="white">
                            <use xlink:href="#path-1"></use>
                        </mask>
                        <g id="Clip-2"></g>
                        <path d="M19.9515599,20.4223791 C18.5997268,21.1434186 17.1894271,21.6642008 15.7201146,21.9847259 C14.250802,22.3041163 12.7525294,22.4652297 11.2242039,22.4652297 C9.59806992,22.4652297 8.0997973,22.2048386 6.7288396,21.6840564 C5.35733549,21.1638414 4.17270564,20.4178407 3.17331081,19.4460543 C2.1744624,18.4748351 1.39581962,17.2976857 0.837382491,15.916308 C0.278945358,14.5343629 -0.000273207991,12.992439 -0.000273207991,11.289969 C-0.000273207991,9.58749894 0.278945358,8.04557505 0.837382491,6.66363002 C1.39581962,5.28225229 2.1744624,4.10567019 3.17331081,3.13388372 C4.17270564,2.16266455 5.35733549,1.41666385 6.7288396,0.895881607 C8.0997973,0.375099366 9.59806992,0.114708245 11.2242039,0.114708245 C12.8891334,0.114708245 14.4223766,0.320071177 15.8228408,0.73079704 C17.2233049,1.1415229 18.4527409,1.84781254 19.5106022,2.84853136 L16.2785517,6.45372868 C15.6512662,5.79225581 14.9458431,5.29189641 14.162829,4.95151586 C13.3792685,4.61113531 12.3995447,4.44094503 11.2242039,4.44094503 C10.24448,4.44094503 9.35873972,4.61113531 8.56534371,4.95151586 C7.77194771,5.29189641 7.0911134,5.76786187 6.52284078,6.37827766 C5.95456816,6.98926075 5.51907462,7.71540592 5.21526733,8.55614588 C4.91200646,9.39688584 4.76010282,10.3091057 4.76010282,11.289969 C4.76010282,12.2918224 4.91200646,13.2080134 5.21526733,14.0385419 C5.51907462,14.8702051 5.95456816,15.5906772 6.52284078,16.2016603 C7.0911134,16.8132107 7.77194771,17.2886089 8.56534371,17.6284221 C9.35873972,17.96937 10.24448,18.1395603 11.2242039,18.1395603 C12.2235987,18.1395603 13.0852967,18.0238309 13.8103907,17.7935067 C14.5343919,17.5637498 15.1125,17.3283199 15.5441686,17.0877844 L15.5441686,13.6329218 L11.8121475,13.6329218 L11.8121475,9.30725229 L19.9515599,9.30725229 L19.9515599,20.4223791 Z" id="Fill-1" fill="#FFFFFF" mask="url(#mask-2)"></path>
                    </g>
                    <g id="Group-6" transform="translate(24.000000, 0.000000)">
                        <mask id="mask-4" fill="white">
                            <use xlink:href="#path-3"></use>
                        </mask>
                        <g id="Clip-5"></g>
                        <path d="M5.14769088,11.0564444 C5.14769088,12.0375556 5.30748408,12.9347778 5.62822422,13.7481111 C5.94896435,14.5625556 6.40930721,15.2681111 7.00925279,15.8658889 C7.6086215,16.4647778 8.32740245,16.9303333 9.1644419,17.2636667 C10.0026351,17.597 10.9383195,17.7636667 11.9726487,17.7636667 C13.0064011,17.7636667 13.9420854,17.597 14.7797018,17.2636667 C15.6173181,16.9303333 16.3355222,16.4647778 16.9360446,15.8658889 C17.5354133,15.2681111 17.9951793,14.5625556 18.3164963,13.7481111 C18.6366596,12.9347778 18.7970297,12.0375556 18.7970297,11.0564444 C18.7970297,10.0958889 18.6366596,9.20255556 18.3164963,8.37922222 C17.9951793,7.55533333 17.5354133,6.84477778 16.9360446,6.24644444 C16.3355222,5.64866667 15.6173181,5.18255556 14.7797018,4.84866667 C13.9420854,4.51588889 13.0064011,4.34922222 11.9726487,4.34922222 C10.9383195,4.34922222 10.0026351,4.51588889 9.1644419,4.84866667 C8.32740245,5.18255556 7.6086215,5.64866667 7.00925279,6.24644444 C6.40930721,6.84477778 5.94896435,7.55533333 5.62822422,8.37922222 C5.30748408,9.20255556 5.14769088,10.0958889 5.14769088,11.0564444 M0.122569796,11.0564444 C0.122569796,9.38922222 0.416773878,7.87866667 1.00633578,6.52588889 C1.59589769,5.17255556 2.4179385,4.02088889 3.47245823,3.06922222 C4.52697796,2.11811111 5.77821061,1.38755556 7.22615619,0.877555556 C8.6735249,0.367555556 10.2553045,0.112555556 11.9726487,0.112555556 C13.6888392,0.112555556 15.2706188,0.367555556 16.7185644,0.877555556 C18.1659331,1.38755556 19.4171657,2.11811111 20.4722623,3.06922222 C21.526782,4.02088889 22.3488229,5.17255556 22.9383848,6.52588889 C23.5279467,7.87866667 23.8227276,9.38922222 23.8227276,11.0564444 C23.8227276,12.7236667 23.5279467,14.2336667 22.9383848,15.5864444 C22.3488229,16.9397778 21.526782,18.0925556 20.4722623,19.0436667 C19.4171657,19.9953333 18.1659331,20.7253333 16.7185644,21.2347778 C15.2706188,21.7447778 13.6888392,21.9997778 11.9726487,21.9997778 C10.2553045,21.9997778 8.6735249,21.7447778 7.22615619,21.2347778 C5.77821061,20.7253333 4.52697796,19.9953333 3.47245823,19.0436667 C2.4179385,18.0925556 1.59589769,16.9397778 1.00633578,15.5864444 C0.416773878,14.2336667 0.122569796,12.7236667 0.122569796,11.0564444" id="Fill-4" fill="#FFFFFF" mask="url(#mask-4)"></path>
                    </g>
                    <g id="Group-9" transform="translate(53.000000, 1.000000)">
                        <mask id="mask-6" fill="white">
                            <use xlink:href="#path-5"></use>
                        </mask>
                        <g id="Clip-8"></g>
                        <polygon id="Fill-7" fill="#FFFFFF" mask="url(#mask-6)" points="5.12476103 9.99724719 0.0567969874 2.61747191 4.03241506 0.0157865169 10.9791235 9.99724719 4.03241506 19.9792697 0.0567969874 17.3770225"></polygon>
                    </g>
                    <path d="M61.4436782,20.4503033 L61.4988506,20.4503033 C61.5071264,20.4503033 61.5158621,20.4498367 61.5250575,20.4489034 C61.5342529,20.4479701 61.5429885,20.445637 61.5512644,20.4419039 C61.5590805,20.4386374 61.565977,20.4330378 61.5714943,20.425105 C61.5770115,20.4176388 61.5793103,20.4069062 61.5793103,20.3938404 C61.5793103,20.380308 61.5770115,20.3695754 61.5714943,20.3625758 C61.565977,20.354643 61.5590805,20.3490434 61.5512644,20.3453103 C61.5429885,20.3420439 61.5342529,20.3397107 61.5250575,20.3387774 C61.5158621,20.3378441 61.5071264,20.3373775 61.4988506,20.3373775 L61.4436782,20.3373775 L61.4436782,20.4503033 Z M61.308046,20.2323845 L61.4933333,20.2323845 C61.508046,20.2323845 61.5278161,20.2333178 61.5526437,20.2351843 C61.577931,20.2370509 61.6022989,20.2435838 61.6266667,20.2538497 C61.6505747,20.265049 61.6717241,20.2818479 61.6896552,20.304713 C61.7075862,20.3271115 61.7167816,20.359776 61.7167816,20.4017732 C61.7167816,20.4288381 61.7131034,20.4507699 61.7057471,20.4680355 C61.6988506,20.4857676 61.6896552,20.4997667 61.6781609,20.5114326 C61.6671264,20.5221652 61.6542529,20.5310313 61.6390805,20.5370975 C61.6248276,20.5426972 61.6096552,20.5464302 61.5944828,20.5482968 L61.7287356,20.7564162 L61.5875862,20.7564162 L61.468046,20.5552963 L61.4450575,20.5552963 L61.4450575,20.7564162 L61.308046,20.7564162 L61.308046,20.2323845 Z M61.1370115,20.4997667 C61.1370115,20.5520299 61.1466667,20.60056 61.1655172,20.6472235 C61.1843678,20.6934204 61.2101149,20.7330845 61.2432184,20.7676155 C61.2767816,20.8012133 61.3149425,20.8287448 61.3590805,20.8488101 C61.4027586,20.8684088 61.4501149,20.8786748 61.5002299,20.8786748 C61.5503448,20.8786748 61.5972414,20.8684088 61.6413793,20.8488101 C61.6850575,20.8287448 61.7236782,20.8012133 61.7567816,20.7676155 C61.7898851,20.7330845 61.816092,20.6934204 61.8349425,20.6472235 C61.8537931,20.60056 61.8634483,20.5520299 61.8634483,20.4997667 C61.8634483,20.4479701 61.8537931,20.3989734 61.8349425,20.3527765 C61.816092,20.3065796 61.7898851,20.2664489 61.7567816,20.2323845 C61.7236782,20.1983201 61.6850575,20.1712552 61.6413793,20.1511899 C61.5972414,20.130658 61.5503448,20.1208586 61.5002299,20.1208586 C61.4501149,20.1208586 61.4027586,20.130658 61.3590805,20.1511899 C61.3149425,20.1712552 61.2767816,20.1983201 61.2432184,20.2323845 C61.2101149,20.2664489 61.1843678,20.3065796 61.1655172,20.3527765 C61.1466667,20.3989734 61.1370115,20.4479701 61.1370115,20.4997667 Z M61,20.4997667 C61,20.4307046 61.0133333,20.3658423 61.0395402,20.3056463 C61.0662069,20.2454503 61.102069,20.1922538 61.1471264,20.1474568 C61.1926437,20.1021932 61.2455172,20.0662622 61.3057471,20.039664 C61.3664368,20.0130658 61.4312644,20 61.5002299,20 C61.5691954,20 61.634023,20.0130658 61.6942529,20.039664 C61.7549425,20.0662622 61.8078161,20.1021932 61.8533333,20.1474568 C61.8983908,20.1922538 61.9342529,20.2454503 61.9609195,20.3056463 C61.9871264,20.3658423 62,20.4307046 62,20.4997667 C62,20.5688287 61.9871264,20.6336911 61.9609195,20.6938871 C61.9342529,20.7545497 61.8983908,20.8077462 61.8533333,20.8525432 C61.8078161,20.8978068 61.7549425,20.9337378 61.6942529,20.960336 C61.634023,20.9864676 61.5691954,21 61.5002299,21 C61.4312644,21 61.3664368,20.9864676 61.3057471,20.960336 C61.2455172,20.9337378 61.1926437,20.8978068 61.1471264,20.8525432 C61.102069,20.8077462 61.0662069,20.7545497 61.0395402,20.6938871 C61.0133333,20.6336911 61,20.5688287 61,20.4997667 Z" id="Fill-10" fill="#FFFFFF"></path>
                </g>
            </g>
        </g>
    </g>
</svg>