<?xml version="1.0" encoding="UTF-8"?>
<svg width="317px" height="21px" viewBox="0 0 317 21" version="1.1" xmlns="http://www.w3.org/2000/svg" xmlns:xlink="http://www.w3.org/1999/xlink">
    <!-- Generator: Sketch 50.2 (55047) - http://www.bohemiancoding.com/sketch -->
    <title>logo-footer</title>
    <desc>Created with Sketch.</desc>
    <defs>
        <polygon id="path-1" points="0.886021053 0.604333333 21.6331789 0.604333333 21.6331789 20.9617333 0.886021053 20.9617333"></polygon>
        <polygon id="path-3" points="0 20 317 20 317 0 0 0"></polygon>
    </defs>
    <g id="Symbols" stroke="none" stroke-width="1" fill="none" fill-rule="evenodd">
        <g id="Master_Footer" transform="translate(-139.000000, -100.000000)">
            <g id="logo-footer" transform="translate(139.000000, 100.000000)">
                <path d="M84,18.171815 C82.7126531,18.815978 81.3692308,19.2836266 79.9709262,19.5713221 C78.5714286,19.8567253 77.1444898,20 75.6901099,20 C74.1402826,20 72.7145369,19.7673219 71.4081005,19.3008195 C70.1028571,18.8354634 68.9729984,18.1683764 68.0221036,17.2984125 C67.0712088,16.4295948 66.3291052,15.3762393 65.798179,14.1394922 C65.2660597,12.9027451 65,11.5227234 65,9.9994269 C65,8.47613044 65.2660597,7.09725486 65.798179,5.85936157 C66.3291052,4.62376067 67.0712088,3.57155138 68.0221036,2.70158748 C68.9729984,1.83276979 70.1028571,1.16453665 71.4081005,0.699180469 C72.7145369,0.23267809 74.1402826,0 75.6901099,0 C77.2745369,0 78.7348823,0.183391598 80.0687598,0.550174795 C81.4026374,0.916957992 82.5730612,1.54965901 83.5800314,2.44483925 L80.5018524,5.67253138 C79.9053061,5.07994727 79.233595,4.63293025 78.4879121,4.32804172 C77.7410361,4.02315319 76.8092308,3.87070892 75.6901099,3.87070892 C74.7559184,3.87070892 73.9124019,4.02315319 73.1571743,4.32804172 C72.4019466,4.63293025 71.7529042,5.05816952 71.2124333,5.60375953 C70.6707692,6.15164193 70.255573,6.8015359 69.9668446,7.55344146 C69.6781162,8.30649321 69.533752,9.12143962 69.533752,9.9994269 C69.533752,10.8968995 69.6781162,11.7164307 69.9668446,12.4603129 C70.255573,13.2030489 70.6707692,13.8495043 71.2124333,14.3950943 C71.7529042,14.9418305 72.4019466,15.3682159 73.1571743,15.6708121 C73.9124019,15.977993 74.7559184,16.1292911 75.6901099,16.1292911 C76.6410047,16.1292911 77.4618524,16.0261333 78.15146,15.8198178 C78.8422606,15.6146484 79.3922763,15.4037481 79.8027002,15.1871167 L79.8027002,12.0958221 L76.2484772,12.0958221 L76.2484772,8.22511319 L84,8.22511319 L84,18.171815 Z" id="Fill-1" fill="#000000"></path>
                <path d="M94.3936641,8.86317374 L96.9856617,8.86317374 C97.3796262,8.86317374 97.7976128,8.85058717 98.2396217,8.82312556 C98.6804294,8.79566396 99.0791983,8.71671183 99.4371293,8.58169226 C99.7926582,8.44781692 100.089333,8.23727793 100.323549,7.95121951 C100.558967,7.66401686 100.675475,7.26353508 100.675475,6.74290876 C100.675475,6.26118639 100.57338,5.87672388 100.365588,5.58952123 C100.158997,5.30460705 99.8971549,5.08376995 99.5776593,4.93158687 C99.2581638,4.78054803 98.8918249,4.677567 98.4786427,4.62378802 C98.0654606,4.5688648 97.6618872,4.54369166 97.2679228,4.54369166 L94.3936641,4.54369166 L94.3936641,8.86317374 Z M90,1 L97.7183395,1 C98.7320772,1 99.6941671,1.09382716 100.60581,1.28262572 C101.516253,1.47028004 102.31379,1.78380006 103.000826,2.22089732 C103.685459,2.65913881 104.229562,3.25070762 104.634337,3.99217103 C105.03791,4.73592291 105.239697,5.66046372 105.239697,6.77037037 C105.239697,8.11255646 104.873358,9.25221319 104.14068,10.191629 C103.408002,11.1310449 102.337812,11.7260464 100.928909,11.9766335 L106,20 L100.731927,20 L96.5628707,12.4057212 L94.3936641,12.4057212 L94.3936641,20 L90,20 L90,1 Z" id="Fill-3" fill="#000000"></path>
                <g id="Group-7" transform="translate(109.000000, 0.000000)">
                    <mask id="mask-2" fill="white">
                        <use xlink:href="#path-1"></use>
                    </mask>
                    <g id="Clip-6"></g>
                    <path d="M5.28486316,10.7825667 C5.28486316,11.6960667 5.42496842,12.5302333 5.70633684,13.2862333 C5.98654737,14.0434 6.38949474,14.7002333 6.91517895,15.2567333 C7.43970526,15.8132333 8.06844211,16.2472333 8.80254737,16.5552333 C9.53549474,16.8679 10.3541263,17.0219 11.2596,17.0219 C12.1650737,17.0219 12.9837053,16.8679 13.7178105,16.5552333 C14.4507579,16.2472333 15.0794947,15.8132333 15.6051789,15.2567333 C16.1297053,14.7002333 16.5326526,14.0434 16.8140211,13.2862333 C17.0942316,12.5302333 17.2343368,11.6960667 17.2343368,10.7825667 C17.2343368,9.8889 17.0942316,9.05823333 16.8140211,8.2929 C16.5326526,7.52756667 16.1297053,6.86606667 15.6051789,6.3084 C15.0794947,5.7519 14.4507579,5.32023333 13.7178105,5.0099 C12.9837053,4.69956667 12.1650737,4.5444 11.2596,4.5444 C10.3541263,4.5444 9.53549474,4.69956667 8.80254737,5.0099 C8.06844211,5.32023333 7.43970526,5.7519 6.91517895,6.3084 C6.38949474,6.86606667 5.98654737,7.52756667 5.70633684,8.2929 C5.42496842,9.05823333 5.28486316,9.8889 5.28486316,10.7825667 M0.886021053,10.7825667 C0.886021053,9.23206667 1.14307368,7.82856667 1.65949474,6.56856667 C2.17591579,5.3109 2.89612632,4.2399 3.81896842,3.3544 C4.74181053,2.47006667 5.83717895,1.7899 7.10507368,1.31623333 C8.37181053,0.8414 9.75665263,0.6034 11.2596,0.6034 C12.7625474,0.6034 14.1473895,0.8414 15.4152842,1.31623333 C16.6820211,1.7899 17.7773895,2.47006667 18.7002316,3.3544 C19.6242316,4.2399 20.3432842,5.3109 20.8597053,6.56856667 C21.3749684,7.82856667 21.6331789,9.23206667 21.6331789,10.7825667 C21.6331789,12.3330667 21.3749684,13.7377333 20.8597053,14.9965667 C20.3432842,16.2542333 19.6242316,17.3275667 18.7002316,18.2119 C17.7773895,19.0974 16.6820211,19.7764 15.4152842,20.2500667 C14.1473895,20.7237333 12.7625474,20.9617333 11.2596,20.9617333 C9.75665263,20.9617333 8.37181053,20.7237333 7.10507368,20.2500667 C5.83717895,19.7764 4.74181053,19.0974 3.81896842,18.2119 C2.89612632,17.3275667 2.17591579,16.2542333 1.65949474,14.9965667 C1.14307368,13.7377333 0.886021053,12.3330667 0.886021053,10.7825667" id="Fill-5" fill="#000000" mask="url(#mask-2)"></path>
                </g>
                <path d="M153,12.9844952 C153,14.1403066 152.829739,15.2068479 152.490359,16.1805955 C152.150978,17.1543431 151.645908,17.9988841 150.976289,18.7142186 C150.30667,19.4295531 149.471361,19.9910143 148.470361,20.3950784 C147.469362,20.7979679 146.317526,21 145.01257,21 C143.690473,21 142.529496,20.7979679 141.528496,20.3950784 C140.528639,19.9910143 139.69333,19.4295531 139.023711,18.7142186 C138.354092,17.9988841 137.847879,17.1543431 137.508499,16.1805955 C137.169119,15.2068479 137,14.1403066 137,12.9844952 L137,1 L141.181117,1 L141.181117,12.8188759 C141.181117,13.4249721 141.274818,13.9864333 141.46222,14.4997357 C141.649621,15.0142127 141.913584,15.4582134 142.252964,15.8352616 C142.592344,16.2123099 142.999143,16.5059611 143.472218,16.71739 C143.945294,16.9276443 144.459506,17.0333588 145.01257,17.0333588 C145.566776,17.0333588 146.076418,16.9276443 146.540351,16.71739 C147.005428,16.5059611 147.406513,16.2123099 147.747036,15.8352616 C148.086416,15.4582134 148.350379,15.0142127 148.53778,14.4997357 C148.725182,13.9864333 148.818883,13.4249721 148.818883,12.8188759 L148.818883,1 L153,1 L153,12.9844952 Z" id="Fill-8" fill="#000000"></path>
                <path d="M164.398894,9.0519723 L167.331089,9.0519723 C167.726617,9.0519723 168.106516,9.01650105 168.473191,8.94441433 C168.839865,8.87347185 169.168069,8.75103884 169.459005,8.58169226 C169.751142,8.41120145 169.985573,8.17892201 170.164703,7.88370973 C170.34263,7.58849744 170.432796,7.21776573 170.432796,6.77037037 C170.432796,6.28750376 170.31498,5.89846432 170.080548,5.60325203 C169.844915,5.30803975 169.544362,5.07919301 169.177687,4.9190003 C168.811012,4.75766335 168.40226,4.65468232 167.951431,4.61005721 C167.500601,4.5654321 167.067805,4.54369166 166.654244,4.54369166 L164.398894,4.54369166 L164.398894,9.0519723 Z M160,1 L167.415244,1 C168.449146,1 169.426545,1.09039446 170.348642,1.26889491 C171.268334,1.44739536 172.072614,1.75748269 172.759077,2.19457995 C173.444338,2.63396567 173.990142,3.22324601 174.394085,3.96699789 C174.798028,4.70731707 175,5.64330021 175,6.77037037 C175,7.88027702 174.812455,8.80939476 174.437365,9.56115628 C174.061072,10.3129178 173.542919,10.911352 172.886511,11.3598916 C172.227699,11.807287 171.447463,12.1253839 170.545804,12.3130382 C169.642943,12.4995483 168.665545,12.5933755 167.612407,12.5933755 L164.398894,12.5933755 L164.398894,20 L160,20 L160,1 Z" id="Fill-10" fill="#000000"></path>
                <path d="M193.30049,16.1361556 L195.533595,16.1361556 C196.525563,16.1361556 197.449363,16.0377574 198.30382,15.8398169 C199.158276,15.6441648 199.897551,15.3169336 200.522821,14.8615561 C201.146915,14.4050343 201.639373,13.8066362 201.99667,13.0629291 C202.356317,12.3203661 202.534966,11.4130435 202.534966,10.3398169 C202.534966,9.40961098 202.356317,8.6006865 201.99667,7.91075515 C201.639373,7.22311213 201.156317,6.65446224 200.549853,6.20594966 C199.943389,5.76086957 199.231146,5.42562929 198.4143,5.20022883 C197.596278,4.9771167 196.73712,4.86498856 195.836827,4.86498856 L193.30049,4.86498856 L193.30049,16.1361556 Z M189,1 L195.450147,1 C197.012145,1 198.496572,1.17162471 199.902253,1.51144165 C201.307933,1.85125858 202.534966,2.40160183 203.582174,3.16018307 C204.630558,3.9221968 205.461508,4.90961098 206.077375,6.12700229 C206.693242,7.34210526 207,8.8180778 207,10.5549199 C207,12.0926773 206.701469,13.4473684 206.104407,14.6189931 C205.507346,15.791762 204.703428,16.7757437 203.692654,17.5709382 C202.681881,18.3672769 201.514789,18.97254 200.191381,19.3832952 C198.869148,19.7940503 197.481097,20 196.029579,20 L189,20 L189,1 Z" id="Fill-12" fill="#000000"></path>
                <mask id="mask-4" fill="white">
                    <use xlink:href="#path-3"></use>
                </mask>
                <g id="Clip-15"></g>
                <polygon id="Fill-14" fill="#000000" mask="url(#mask-4)" points="212 20 216 20 216 1 212 1"></polygon>
                <path d="M241,18.171815 C239.712653,18.815978 238.369231,19.2836266 236.970926,19.5713221 C235.571429,19.8567253 234.14449,20 232.688917,20 C231.140283,20 229.713344,19.7673219 228.4081,19.3008195 C227.101664,18.8354634 225.972998,18.1683764 225.022104,17.2984125 C224.071209,16.4295948 223.329105,15.3762393 222.798179,14.1394922 C222.26606,12.9027451 222,11.5227234 222,9.9994269 C222,8.47613044 222.26606,7.09725486 222.798179,5.85936157 C223.329105,4.62376067 224.071209,3.57155138 225.022104,2.70158748 C225.972998,1.83276979 227.101664,1.16453665 228.4081,0.699180469 C229.713344,0.23267809 231.140283,0 232.688917,0 C234.274537,0 235.734882,0.183391598 237.06876,0.550174795 C238.402637,0.916957992 239.573061,1.54965901 240.580031,2.44483925 L237.501852,5.67253138 C236.905306,5.07994727 236.233595,4.63293025 235.487912,4.32804172 C234.741036,4.02315319 233.809231,3.87070892 232.688917,3.87070892 C231.755918,3.87070892 230.912402,4.02315319 230.157174,4.32804172 C229.401947,4.63293025 228.752904,5.05816952 228.212433,5.60375953 C227.670769,6.15164193 227.255573,6.8015359 226.966845,7.55344146 C226.678116,8.30649321 226.533752,9.12143962 226.533752,9.9994269 C226.533752,10.8968995 226.678116,11.7164307 226.966845,12.4603129 C227.255573,13.2030489 227.670769,13.8495043 228.212433,14.3950943 C228.752904,14.9418305 229.401947,15.3682159 230.157174,15.6708121 C230.912402,15.977993 231.755918,16.1292911 232.688917,16.1292911 C233.641005,16.1292911 234.461852,16.0261333 235.15146,15.8198178 C235.841068,15.6146484 236.392276,15.4037481 236.8027,15.1871167 L236.8027,12.0958221 L233.248477,12.0958221 L233.248477,8.22511319 L241,8.22511319 L241,18.171815 Z" id="Fill-16" fill="#000000" mask="url(#mask-4)"></path>
                <polygon id="Fill-17" fill="#000000" mask="url(#mask-4)" points="247 20 251 20 251 1 247 1"></polygon>
                <polygon id="Fill-18" fill="#000000" mask="url(#mask-4)" points="261.410005 4.70388437 256 4.70388437 256 1 271 1 271 4.70388437 265.588853 4.70388437 265.588853 20 261.410005 20"></polygon>
                <path d="M281.851945,6.52893707 L279.537014,12.4320385 L284.194422,12.4320385 L281.851945,6.52893707 Z M280.237117,1 L283.710088,1 L292,20 L287.262252,20 L285.621026,15.9757302 L278.218295,15.9757302 L276.629863,20 L272,20 L280.237117,1 Z" id="Fill-19" fill="#000000" mask="url(#mask-4)"></path>
                <polygon id="Fill-20" fill="#000000" mask="url(#mask-4)" points="297 1 301.206956 1 301.206956 16.1370671 309 16.1370671 309 20 297 20"></polygon>
                <path d="M19,18.1724477 C17.7132325,18.8175343 16.3694864,19.2831085 14.9699488,19.5703283 C13.5715982,19.8563901 12.1447582,20 10.689429,20 C9.14032238,20 7.71348244,19.7672129 6.40890916,19.3016388 C5.10196176,18.8349065 3.9730726,18.1678152 3.02224166,17.2980485 C2.07141072,16.42944 1.32950144,15.3766865 0.797700862,14.1397881 C0.265900287,12.9028896 0,11.5235393 0,9.99942093 C0,8.47646071 0.265900287,7.09711043 0.797700862,5.8590538 C1.32950144,4.62331345 2.07141072,3.57171811 3.02224166,2.70195147 C3.9730726,1.83218484 5.10196176,1.16393538 6.40890916,0.698361225 C7.71348244,0.232787075 9.14032238,0 10.689429,0 C12.2741472,0 13.7342247,0.184145 15.0684743,0.55011871 C16.4015369,0.918408709 17.5731601,1.54959754 18.5797826,2.44600151 L15.5017493,5.67143436 C14.9046608,5.07962244 14.2327877,4.63257861 13.4873173,4.32798657 C12.7418468,4.02223638 11.8076346,3.87051943 10.689429,3.87051943 C9.75640385,3.87051943 8.91240785,4.02223638 8.1562539,4.32798657 C7.40128702,4.63257861 6.75315507,5.05877584 6.21304511,5.60426197 C5.67056104,6.15090625 5.2562789,6.8006254 4.96663751,7.55341942 C4.67818318,8.3050553 4.53336249,9.12270543 4.53336249,9.99942093 C4.53336249,10.8958249 4.67818318,11.7157913 4.96663751,12.4593202 C5.2562789,13.2040072 5.67056104,13.8490938 6.21304511,14.3945799 C6.75315507,14.9423823 7.40128702,15.3674214 8.1562539,15.6720134 C8.91240785,15.9766055 9.75640385,16.1283224 10.689429,16.1283224 C11.6402599,16.1283224 12.4617019,16.0252476 13.1513807,15.8202559 C13.8410596,15.6141062 14.3918531,15.4021657 14.802574,15.187909 L14.802574,12.0968209 L11.2485318,12.0968209 L11.2485318,8.22514332 L19,8.22514332 L19,18.1724477 Z" id="Fill-21" fill="#000000" mask="url(#mask-4)"></path>
                <path d="M27.4532734,10 C27.4532734,10.895194 27.5955356,11.7151129 27.8788939,12.4597568 C28.1634183,13.2044007 28.5703815,13.8482918 29.1021156,14.3949045 C29.6338497,14.9426752 30.2705314,15.3676896 31.0121606,15.671106 C31.7549559,15.9768384 32.5840413,16.1285466 33.500583,16.1285466 C34.4171248,16.1285466 35.2462102,15.9768384 35.9878394,15.671106 C36.7306347,15.3676896 37.3661503,14.9426752 37.8978844,14.3949045 C38.4296185,13.8482918 38.8377478,13.2044007 39.1211061,12.4597568 C39.4056305,11.7151129 39.5478927,10.895194 39.5478927,10 C39.5478927,9.12217719 39.4056305,8.30573248 39.1211061,7.55414013 C38.8377478,6.80023162 38.4296185,6.15170816 37.8978844,5.60509554 C37.3661503,5.05848292 36.7306347,4.63231036 35.9878394,4.32889404 C35.2462102,4.02316155 34.4171248,3.87145339 33.500583,3.87145339 C32.5840413,3.87145339 31.7549559,4.02316155 31.0121606,4.32889404 C30.2705314,4.63231036 29.6338497,5.05848292 29.1021156,5.60509554 C28.5703815,6.15170816 28.1634183,6.80023162 27.8788939,7.55414013 C27.5955356,8.30573248 27.4532734,9.12217719 27.4532734,10 M23,10 C23,8.47712797 23.2612027,7.09669948 23.7836082,5.85987261 C24.3060137,4.62304574 25.0348159,3.57151129 25.9688489,2.70179502 C26.9028819,1.83207875 28.0118274,1.16502606 29.2945194,0.699478865 C30.5772114,0.232773596 31.9788439,0 33.500583,0 C35.0211561,0 36.4227886,0.232773596 37.7054806,0.699478865 C38.9881726,1.16502606 40.0971181,1.83207875 41.0323172,2.70179502 C41.9663502,3.57151129 42.6939863,4.62304574 43.2175579,5.85987261 C43.7387973,7.09669948 44,8.47712797 44,10 C44,11.522872 43.7387973,12.9033005 43.2175579,14.1389693 C42.6939863,15.3769543 41.9663502,16.4296468 41.0323172,17.298205 C40.0971181,18.1679213 38.9881726,18.8349739 37.7054806,19.3005211 C36.4227886,19.7672264 35.0211561,20 33.500583,20 C31.9788439,20 30.5772114,19.7672264 29.2945194,19.3005211 C28.0118274,18.8349739 26.9028819,18.1679213 25.9688489,17.298205 C25.0348159,16.4296468 24.3060137,15.3769543 23.7836082,14.1389693 C23.2612027,12.9033005 23,11.522872 23,10" id="Fill-22" fill="#000000" mask="url(#mask-4)"></path>
                <polygon id="Fill-23" fill="#0054FF" mask="url(#mask-4)" points="54.6405229 9.99941984 50 3.34616128 53.6399287 1 60 9.99941984 53.6399287 19 50 16.6526784"></polygon>
                <path d="M314.774108,17.8014606 L314.994672,17.8014606 C315.026638,17.8014606 315.061801,17.7992967 315.099094,17.7960509 C315.137453,17.791723 315.172616,17.7830674 315.204582,17.7690019 C315.236548,17.7549364 315.263186,17.7322153 315.284497,17.7019205 C315.306873,17.6716256 315.317528,17.6294293 315.317528,17.5753313 C315.317528,17.5212334 315.306873,17.4790371 315.284497,17.4487422 C315.263186,17.4184474 315.236548,17.3957263 315.204582,17.3816608 C315.172616,17.3675953 315.137453,17.3589397 315.099094,17.3546118 C315.061801,17.351366 315.026638,17.3492021 314.994672,17.3492021 L314.774108,17.3492021 L314.774108,17.8014606 Z M314.230687,16.9294022 L314.973362,16.9294022 C315.0309,16.9294022 315.10975,16.9337301 315.209909,16.9402218 C315.310069,16.9477955 315.409164,16.9726806 315.506127,17.0159589 C315.602025,17.0592372 315.686201,17.1263186 315.757592,17.2182851 C315.830048,17.3091696 315.86521,17.4390046 315.86521,17.6067081 C315.86521,17.714904 315.851359,17.8036246 315.822589,17.8728699 C315.79382,17.9431972 315.757592,18.0016229 315.71284,18.0459832 C315.668087,18.0914255 315.615876,18.1249662 315.556207,18.1476873 C315.497603,18.1714904 315.437933,18.1855559 315.376132,18.1931296 L315.914225,19.0273194 L315.349494,19.0273194 L314.871071,18.2212605 L314.779435,18.2212605 L314.779435,19.0273194 L314.230687,19.0273194 L314.230687,16.9294022 Z M313.548748,18.000541 C313.548748,18.208277 313.586042,18.4051934 313.661694,18.5891263 C313.736281,18.7730592 313.840703,18.934271 313.972829,19.0695158 C314.10602,19.2069245 314.260522,19.3140384 314.435269,19.3951853 C314.611082,19.4763322 314.798615,19.5163646 315,19.5163646 C315.20032,19.5163646 315.388918,19.4763322 315.564731,19.3951853 C315.740543,19.3140384 315.89398,19.2069245 316.027171,19.0695158 C316.159297,18.934271 316.263719,18.7730592 316.339371,18.5891263 C316.413958,18.4051934 316.452318,18.208277 316.452318,18.000541 C316.452318,17.791723 316.413958,17.5969705 316.339371,17.4119556 C316.263719,17.2269408 316.159297,17.065729 316.027171,16.9294022 C315.89398,16.7941574 315.740543,16.6859616 315.564731,16.6048147 C315.388918,16.5236678 315.20032,16.4836354 315,16.4836354 C314.798615,16.4836354 314.611082,16.5236678 314.435269,16.6048147 C314.260522,16.6859616 314.10602,16.7941574 313.972829,16.9294022 C313.840703,17.065729 313.736281,17.2269408 313.661694,17.4119556 C313.586042,17.5969705 313.548748,17.791723 313.548748,18.000541 Z M313,18.000541 C313,17.7246416 313.052211,17.4649716 313.157698,17.2236949 C313.264251,16.9813362 313.407032,16.7703543 313.588173,16.5885853 C313.769313,16.4078983 313.981353,16.2639978 314.223229,16.1579659 C314.465104,16.053016 314.724028,16 315,16 C315.275972,16 315.534896,16.053016 315.776771,16.1579659 C316.018647,16.2639978 316.230687,16.4078983 316.411827,16.5885853 C316.592968,16.7703543 316.735749,16.9813362 316.841236,17.2236949 C316.947789,17.4649716 317,17.7246416 317,18.000541 C317,18.2753584 316.947789,18.5350284 316.841236,18.7763051 C316.735749,19.0186638 316.592968,19.2296457 316.411827,19.4114147 C316.230687,19.5921017 316.018647,19.7360022 315.776771,19.8420341 C315.534896,19.946984 315.275972,20 315,20 C314.724028,20 314.465104,19.946984 314.223229,19.8420341 C313.981353,19.7360022 313.769313,19.5921017 313.588173,19.4114147 C313.407032,19.2296457 313.264251,19.0186638 313.157698,18.7763051 C313.052211,18.5350284 313,18.2753584 313,18.000541 Z" id="Fill-24" fill="#000000" mask="url(#mask-4)"></path>
            </g>
        </g>
    </g>
</svg>