<?xml version="1.0" encoding="UTF-8"?>
<svg width="357px" height="26px" viewBox="0 0 357 26" version="1.1" xmlns="http://www.w3.org/2000/svg" xmlns:xlink="http://www.w3.org/1999/xlink">
    <!-- Generator: Sketch 50.2 (55047) - http://www.bohemiancoding.com/sketch -->
    <title>logo-membership</title>
    <desc>Created with Sketch.</desc>
    <defs>
        <polygon id="path-1" points="0.0481977169 0.047755102 18.2676954 0.047755102 18.2676954 25.9511306 0.0481977169 25.9511306"></polygon>
        <polygon id="path-3" points="0 26 356.48216 26 356.48216 0.047755102 0 0.047755102"></polygon>
    </defs>
    <g id="WORKING" stroke="none" stroke-width="1" fill="none" fill-rule="evenodd">
        <g id="4.About-V3" transform="translate(-542.000000, -4272.000000)">
            <g id="Group-11" transform="translate(-312.000000, 4261.000000)">
                <g id="logo-membership" transform="translate(854.000000, 11.000000)">
                    <polygon id="Fill-1" fill="#BFBFBF" points="89 1 97.5547597 1 103.463814 17.3140108 103.536186 17.3140108 109.48115 1 118 1 118 26 112.345075 26 112.345075 6.82689369 112.272703 6.82689369 105.529994 26 101.215876 26 94.727297 6.82689369 94.6549254 6.82689369 94.6549254 26 89 26"></polygon>
                    <polygon id="Fill-2" fill="#BFBFBF" points="126 1 143.350762 1 143.350762 6.08480961 131.627096 6.08480961 131.627096 10.7461093 142.701524 10.7461093 142.701524 15.831457 131.627096 15.831457 131.627096 20.9151904 144 20.9151904 144 26 126 26"></polygon>
                    <polygon id="Fill-3" fill="#BFBFBF" points="152 1 160.55476 1 166.463814 17.3140108 166.536186 17.3140108 172.48115 1 181 1 181 26 175.345075 26 175.345075 6.82689369 175.272703 6.82689369 168.529994 26 164.215876 26 157.727297 6.82689369 157.654925 6.82689369 157.654925 26 152 26"></polygon>
                    <g id="Group-21">
                        <path d="M194.932161,20.7290571 L199.924184,20.7290571 C200.351823,20.7290571 200.784896,20.6823633 201.225033,20.5889755 C201.664627,20.4971796 202.062924,20.3342816 202.41938,20.1018735 C202.77638,19.8699959 203.067088,19.5680776 203.293134,19.1961184 C203.518636,18.8252204 203.632202,18.3736694 203.632202,17.8388122 C203.632202,17.2593837 203.482773,16.7887306 203.186088,16.4289755 C202.88886,16.069751 202.513928,15.7970163 202.062924,15.6107714 C201.611376,15.4250571 201.123965,15.2977102 200.601234,15.2271388 C200.07796,15.1576286 199.590549,15.1236694 199.139001,15.1236694 L194.932161,15.1236694 L194.932161,20.7290571 Z M194.932161,10.5269755 L198.960773,10.5269755 C199.388956,10.5269755 199.810618,10.4808122 200.226846,10.3884857 C200.642531,10.295098 201.016376,10.1438735 201.350011,9.93534286 C201.682558,9.72628163 201.949901,9.44824082 202.152038,9.10015918 C202.353632,8.75207755 202.455243,8.33342449 202.455243,7.84632245 C202.455243,7.33640408 202.342221,6.9124449 202.116718,6.57550612 C201.890673,6.23856735 201.599965,5.97750612 201.242965,5.79232245 C200.886508,5.60660816 200.482234,5.47289388 200.030686,5.39224082 C199.579138,5.30999592 199.139001,5.26966939 198.711362,5.26966939 L194.932161,5.26966939 L194.932161,10.5269755 Z M189.370134,0.673506122 L198.782545,0.673506122 C199.875823,0.673506122 200.975622,0.749383673 202.080855,0.900608163 C203.186088,1.05183265 204.178298,1.35215918 205.058029,1.80530204 C205.937216,2.25791429 206.650129,2.89040408 207.197312,3.70277143 C207.743951,4.51513878 208.017271,5.59546531 208.017271,6.94162857 C208.017271,8.33342449 207.618974,9.48856735 206.822924,10.4049347 C206.02633,11.3218327 204.974348,11.9782 203.667522,12.3729755 L203.667522,12.4424857 C204.498892,12.5586898 205.254189,12.7842 205.931239,13.1211388 C206.608832,13.4580776 207.191335,13.8868122 207.678746,14.4094653 C208.165613,14.9315878 208.540001,15.5412612 208.801367,16.2374245 C209.063275,16.9341184 209.193686,17.6769755 209.193686,18.4654653 C209.193686,19.7654653 208.908956,20.8505673 208.338408,21.7207714 C207.76786,22.5915061 207.031038,23.2940367 206.127942,23.8278327 C205.223759,24.3616286 204.207641,24.7447306 203.079042,24.9760776 C201.949901,25.2079551 200.826737,25.3241592 199.709549,25.3241592 L189.370134,25.3241592 L189.370134,0.673506122 Z" id="Fill-4" fill="#BFBFBF"></path>
                        <polygon id="Fill-6" fill="#BFBFBF" points="216.253375 0.673559184 233.403503 0.673559184 233.403503 5.68731429 221.815402 5.68731429 221.815402 10.2834776 232.761772 10.2834776 232.761772 15.2977633 221.815402 15.2977633 221.815402 20.3104571 234.045233 20.3104571 234.045233 25.3242122 216.253375 25.3242122"></polygon>
                        <path d="M247.629274,10.8753755 L250.909109,10.8753755 C251.408474,10.8753755 251.937182,10.8578653 252.495776,10.8233755 C253.053826,10.7883551 253.559712,10.6838245 254.01126,10.5097837 C254.462264,10.3352122 254.837196,10.0630082 255.134968,9.6921102 C255.431109,9.32068163 255.579995,8.79855918 255.579995,8.12468163 C255.579995,7.49802857 255.449584,6.99925306 255.187675,6.62729388 C254.92631,6.25639592 254.593219,5.97251837 254.189488,5.7746 C253.785214,5.57774286 253.321712,5.44402857 252.799525,5.37451837 C252.276251,5.30500816 251.764931,5.26998776 251.265566,5.26998776 L247.629274,5.26998776 L247.629274,10.8753755 Z M242.067246,0.673293878 L251.836114,0.673293878 C253.119575,0.673293878 254.337831,0.795865306 255.491424,1.03941633 C256.643931,1.28296735 257.653529,1.68941633 258.521849,2.25823265 C259.389082,2.82704898 260.078086,3.59272245 260.589949,4.55578367 C261.100726,5.51937551 261.356657,6.72068163 261.356657,8.15917143 C261.356657,9.9001102 260.892611,11.3799878 259.965607,12.5988041 C259.038602,13.8176204 257.683958,14.5896612 255.901132,14.9138653 L262.318981,25.3239469 L255.651721,25.3239469 L250.374424,15.4715388 L247.629274,15.4715388 L247.629274,25.3239469 L242.067246,25.3239469 L242.067246,0.673293878 Z" id="Fill-8" fill="#BFBFBF"></path>
                        <g id="Group-12" transform="translate(266.799087, 0.000000)">
                            <mask id="mask-2" fill="white">
                                <use xlink:href="#path-1"></use>
                            </mask>
                            <g id="Clip-11"></g>
                            <path d="M14.4167685,6.69680408 C13.9646772,6.14019184 13.3528324,5.72896735 12.5806909,5.46153878 C11.8074626,5.19517143 11.0771612,5.06039592 10.3876132,5.06039592 C9.98333927,5.06039592 9.56765434,5.10815102 9.14001507,5.20047755 C8.71183242,5.29333469 8.30755845,5.43872245 7.92773653,5.63557959 C7.54682785,5.83243673 7.23764521,6.09349796 7.00073196,6.41929388 C6.76273196,6.74455918 6.64373196,7.13827347 6.64373196,7.60255918 C6.64373196,8.34541633 6.92954932,8.91476327 7.50009726,9.30847755 C8.07010183,9.70325306 8.78899224,10.0401918 9.65676849,10.317702 C10.5240014,10.5968041 11.4575265,10.8753755 12.4557137,11.1539469 C13.4544443,11.4319878 14.3863393,11.8278245 15.2546589,12.3377429 C16.1224352,12.8487224 16.8413256,13.5337429 17.4118735,14.3917429 C17.9824215,15.2508041 18.2676954,16.4001102 18.2676954,17.8386 C18.2676954,19.2086408 18.0052434,20.4035796 17.4830562,21.4255388 C16.9603256,22.4464367 16.2528461,23.2938245 15.3617046,23.9666408 C14.470563,24.6399878 13.4359694,25.1387633 12.2595539,25.4640286 C11.082595,25.7882327 9.84043059,25.9511306 8.53360411,25.9511306 C6.89314292,25.9511306 5.37168174,25.7075796 3.96976393,25.2194163 C2.56675936,24.7323143 1.25993288,23.9438245 0.0481977169,22.8523551 L4.00562694,18.6042735 C4.57617489,19.3476612 5.29452192,19.9228449 6.16284155,20.327702 C7.03007443,20.734151 7.92773653,20.9373755 8.8547411,20.9373755 C9.30574566,20.9373755 9.76381416,20.8853755 10.2273164,20.7808449 C10.6908187,20.6763143 11.1065037,20.5197837 11.475458,20.3101918 C11.8438689,20.1021918 12.1405539,19.8358245 12.3665995,19.5100286 C12.5926452,19.1847633 12.705668,18.8021918 12.705668,18.3607224 C12.705668,17.6189265 12.4138735,17.0326 11.8319146,16.6022735 C11.2488689,16.1730082 10.5180242,15.8084776 9.63883699,15.5060286 C8.75910639,15.2041102 7.80819315,14.9027224 6.78664064,14.6008041 C5.76400137,14.2994163 4.81308813,13.893498 3.93444429,13.3825184 C3.0547137,12.8715388 2.32332557,12.1987224 1.74136667,11.3624776 C1.15886438,10.5272939 0.867613242,9.42468163 0.867613242,8.05570204 C0.867613242,6.73182449 1.13549909,5.57137551 1.67018402,4.57329388 C2.20486895,3.57521224 2.91832557,2.74002857 3.80946712,2.06615102 C4.70060868,1.39386531 5.72868174,0.889253061 6.89314292,0.552314286 C8.05814749,0.21537551 9.25847169,0.0477020408 10.4946589,0.0477020408 C11.9210288,0.0477020408 13.2990379,0.244559184 14.6308598,0.639334694 C15.961595,1.0341102 17.1624626,1.69525306 18.2318324,2.62382449 L14.4167685,6.69680408 Z" id="Fill-10" fill="#BFBFBF" mask="url(#mask-2)"></path>
                        </g>
                        <polygon id="Fill-13" fill="#BFBFBF" points="292.76793 0.673559184 298.329957 0.673559184 298.329957 9.86588571 309.133418 9.86588571 309.133418 0.673559184 314.695446 0.673559184 314.695446 25.3242122 309.133418 25.3242122 309.133418 14.6705796 298.329957 14.6705796 298.329957 25.3242122 292.76793 25.3242122"></polygon>
                        <mask id="mask-4" fill="white">
                            <use xlink:href="#path-3"></use>
                        </mask>
                        <g id="Clip-16"></g>
                        <polygon id="Fill-15" fill="#BFBFBF" mask="url(#mask-4)" points="323.323543 25.324 328.885571 25.324 328.885571 0.673346939 323.323543 0.673346939"></polygon>
                        <path d="M343.076131,11.1189265 L346.784149,11.1189265 C347.282971,11.1189265 347.764405,11.0732939 348.227907,10.9799061 C348.691409,10.8875796 349.107637,10.7305184 349.476048,10.5097837 C349.844459,10.2901102 350.141144,9.98713061 350.36719,9.60455918 C350.593236,9.22145714 350.706258,8.74072245 350.706258,8.15917143 C350.706258,7.53304898 350.557373,7.02843673 350.260688,6.64480408 C349.962916,6.26276327 349.583094,5.96615102 349.119592,5.7570898 C348.656089,5.54855918 348.138793,5.4148449 347.568788,5.35700816 C346.99824,5.29864082 346.451058,5.26998776 345.928327,5.26998776 L343.076131,5.26998776 L343.076131,11.1189265 Z M337.514103,0.673293878 L346.891195,0.673293878 C348.198021,0.673293878 349.434208,0.790559184 350.599213,1.02190612 C351.763131,1.25378367 352.779249,1.65492653 353.647569,2.22268163 C354.515345,2.79202857 355.203806,3.55876327 355.715669,4.52129388 C356.226446,5.4843551 356.482377,6.69680408 356.482377,8.15917143 C356.482377,9.59872245 356.244377,10.8058653 355.768921,11.7800694 C355.292921,12.7553347 354.639779,13.5337429 353.807866,14.1131714 C352.975953,14.6931306 351.98972,15.1059469 350.849167,15.349498 C349.707528,15.593049 348.471884,15.7150898 347.140605,15.7150898 L343.076131,15.7150898 L343.076131,25.3239469 L337.514103,25.3239469 L337.514103,0.673293878 Z" id="Fill-17" fill="#BFBFBF" mask="url(#mask-4)"></path>
                        <path d="M24.331805,23.6567102 C22.6831932,24.4839347 20.9633986,25.0814041 19.1713347,25.4485878 C17.3798142,25.8157714 15.5524306,25.9998939 13.6886406,25.9998939 C11.7053073,25.9998939 9.87792374,25.7011592 8.20594658,25.1042204 C6.53396941,24.5072816 5.0880379,23.6514041 3.86978219,22.5371184 C2.65206986,21.4228327 1.70224338,20.0729551 1.0213895,18.4880163 C0.340535616,16.9025469 -0.000163013699,15.1340163 -0.000163013699,13.1818939 C-0.000163013699,11.2292408 0.340535616,9.46017959 1.0213895,7.87524082 C1.70224338,6.28977143 2.65206986,4.9409551 3.86978219,3.82613878 C5.0880379,2.71185306 6.53396941,1.85650612 8.20594658,1.25903673 C9.87792374,0.661567347 11.7053073,0.363363265 13.6886406,0.363363265 C15.7192479,0.363363265 17.5884717,0.598955102 19.2968553,1.06960816 C21.0046954,1.54026122 22.5044215,2.35050612 23.7944032,3.49875102 L19.852732,7.63381224 C19.0876543,6.87556735 18.2274854,6.3014449 17.2722251,5.91091429 C16.3164215,5.52038367 15.1220744,5.32511837 13.6886406,5.32511837 C12.4937502,5.32511837 11.4135128,5.52038367 10.4457548,5.91091429 C9.47854018,6.3014449 8.6477137,6.84691429 7.95544886,7.54785306 C7.26209726,8.24879184 6.7306726,9.08079184 6.36063151,10.0459755 C5.99004703,11.0106286 5.80529817,12.0564653 5.80529817,13.1818939 C5.80529817,14.3306694 5.99004703,15.3812816 6.36063151,16.3342612 C6.7306726,17.2877714 7.26209726,18.1149959 7.95544886,18.8154041 C8.6477137,19.5163429 9.47854018,20.0618122 10.4457548,20.4523429 C11.4135128,20.8428735 12.4937502,21.0376082 13.6886406,21.0376082 C14.9074397,21.0376082 15.9583347,20.9060163 16.8424123,20.6412408 C17.7259466,20.3775265 18.4307091,20.1079755 18.9567,19.8320571 L18.9567,15.8689143 L14.4053575,15.8689143 L14.4053575,10.9071592 L24.331805,10.9071592 L24.331805,23.6567102 Z" id="Fill-18" fill="#000000" mask="url(#mask-4)"></path>
                        <path d="M37.2681374,13.1817878 C37.2681374,14.3305633 37.4528863,15.3817061 37.8234708,16.3341551 C38.1940553,17.2876653 38.7254799,18.1148898 39.4182881,18.815298 C40.110553,19.5162367 40.9413795,20.0617061 41.9085941,20.4522367 C42.8763521,20.8427673 43.9571329,21.0380327 45.1520233,21.0380327 C46.3463703,21.0380327 47.4271511,20.8427673 48.3949091,20.4522367 C49.3621237,20.0617061 50.1924068,19.5162367 50.8852151,18.815298 C51.5780233,18.1148898 52.1094479,17.2876653 52.4800324,16.3341551 C52.8500735,15.3817061 53.0353658,14.3305633 53.0353658,13.1817878 C53.0353658,12.0563592 52.8500735,11.0105224 52.4800324,10.0458694 C52.1094479,9.08068571 51.5780233,8.24868571 50.8852151,7.54774694 C50.1924068,6.84733878 49.3621237,6.30133878 48.3949091,5.91080816 C47.4271511,5.52080816 46.3463703,5.32501224 45.1520233,5.32501224 C43.9571329,5.32501224 42.8763521,5.52080816 41.9085941,5.91080816 C40.9413795,6.30133878 40.110553,6.84733878 39.4182881,7.54774694 C38.7254799,8.24868571 38.1940553,9.08068571 37.8234708,10.0458694 C37.4528863,11.0105224 37.2681374,12.0563592 37.2681374,13.1817878 M31.4626763,13.1817878 C31.4626763,11.2291347 31.8033749,9.46007347 32.4842288,7.87513469 C33.1650826,6.29019592 34.1149091,4.94084898 35.3326215,3.82603265 C36.5514205,2.71227755 37.9968087,1.8564 39.6687858,1.25893061 C41.3413064,0.661461224 43.16869,0.363257143 45.1520233,0.363257143 C47.1342699,0.363257143 48.9621968,0.661461224 50.6347174,1.25893061 C52.3066945,1.8564 53.7520826,2.71227755 54.9708817,3.82603265 C56.1885941,4.94084898 57.1384205,6.29019592 57.8198178,7.87513469 C58.5006717,9.46007347 58.8408269,11.2291347 58.8408269,13.1817878 C58.8408269,15.1344408 58.5006717,16.9029714 57.8198178,18.4879102 C57.1384205,20.072849 56.1885941,21.4227265 54.9708817,22.5370122 C53.7520826,23.651298 52.3066945,24.5071755 50.6347174,25.1041143 C48.9621968,25.7010531 47.1342699,25.9997878 45.1520233,25.9997878 C43.16869,25.9997878 41.3413064,25.7010531 39.6687858,25.1041143 C37.9968087,24.5071755 36.5514205,23.651298 35.3326215,22.5370122 C34.1149091,21.4227265 33.1650826,20.072849 32.4842288,18.4879102 C31.8033749,16.9029714 31.4626763,15.1344408 31.4626763,13.1817878" id="Fill-19" fill="#000000" mask="url(#mask-4)"></path>
                        <polygon id="Fill-20" fill="#0054FF" mask="url(#mask-4)" points="71.7755836 13.1222 65.8369945 4.60640408 70.495926 1.60366939 78.6357434 13.1222 70.495926 24.6412612 65.8369945 21.6385265"></polygon>
                    </g>
                </g>
            </g>
        </g>
    </g>
</svg>