<?xml version="1.0" encoding="UTF-8"?>
<svg width="128px" height="45px" viewBox="0 0 128 45" version="1.1" xmlns="http://www.w3.org/2000/svg" xmlns:xlink="http://www.w3.org/1999/xlink">
    <!-- Generator: Sketch 50.2 (55047) - http://www.bohemiancoding.com/sketch -->
    <title>logo-blue</title>
    <desc>Created with Sketch.</desc>
    <defs>
        <polygon id="path-1" points="0 0.228680067 39.9031199 0.228680067 39.9031199 44.6095106 0 44.6095106"></polygon>
        <polygon id="path-3" points="0.245139592 0.225555556 47.6454552 0.225555556 47.6454552 43.9995556 0.245139592 43.9995556"></polygon>
        <polygon id="path-5" points="0.113593975 0.0315730337 21.9574538 0.0315730337 21.9574538 39.9585393 0.113593975 39.9585393"></polygon>
    </defs>
    <g id="WORKING" stroke="none" stroke-width="1" fill="none" fill-rule="evenodd">
        <g id="1.3-Home-Scroll-V3" transform="translate(-452.000000, -3008.000000)">
            <g id="BLOG-TITLE" transform="translate(135.000000, 2907.000000)">
                <g id="logo-blue" transform="translate(317.000000, 101.000000)">
                    <g id="Group-3">
                        <mask id="mask-2" fill="white">
                            <use xlink:href="#path-1"></use>
                        </mask>
                        <g id="Clip-2"></g>
                        <path d="M39.9031199,40.5531993 C37.1994536,41.9849844 34.3788543,43.0191139 31.4402291,43.655588 C28.501604,44.2898091 25.5050588,44.6097359 22.4484078,44.6097359 C19.1961398,44.6097359 16.1995946,44.0926711 13.4576792,43.0585415 C10.714671,42.0255385 8.34541128,40.5441873 6.34662162,38.614488 C4.34892479,36.6859152 2.79163925,34.3484219 1.67476498,31.6053876 C0.557890717,28.8612268 -0.000546415981,25.7993923 -0.000546415981,22.4187574 C-0.000546415981,19.0381225 0.557890717,15.9762879 1.67476498,13.2321271 C2.79163925,10.4890928 4.34892479,8.15272601 6.34662162,6.22302673 C8.34541128,4.29445395 10.714671,2.81310277 13.4576792,1.77897321 C16.1995946,0.744843646 19.1961398,0.227778865 22.4484078,0.227778865 C25.7782667,0.227778865 28.8447532,0.635572876 31.6456816,1.4511609 C34.4466099,2.26674892 36.9054818,3.6692449 39.0212045,5.65639582 L32.5571034,12.8153211 C31.3025323,11.5018188 29.8916863,10.5082433 28.325658,9.83234167 C26.758537,9.15644 24.7990893,8.81848916 22.4484078,8.81848916 C20.48896,8.81848916 18.7174794,9.15644 17.1306874,9.83234167 C15.5438954,10.5082433 14.1822268,11.4533792 13.0456816,12.6654962 C11.9091363,13.8787397 11.0381492,15.3206633 10.4305347,16.9901404 C9.82401293,18.6596176 9.52020564,20.471034 9.52020564,22.4187574 C9.52020564,24.4081613 9.82401293,26.2274633 10.4305347,27.8766634 C11.0381492,29.5281165 11.9091363,30.958775 13.0456816,32.1720186 C14.1822268,33.3863886 15.5438954,34.3303979 17.1306874,35.0051731 C18.7174794,35.6822013 20.48896,36.0201521 22.4484078,36.0201521 C24.4471974,36.0201521 26.1705934,35.7903455 27.6207814,35.3329854 C29.0687838,34.8767518 30.225,34.4092531 31.0883373,33.9316159 L31.0883373,27.0712139 L23.6242949,27.0712139 L23.6242949,18.4816301 L39.9031199,18.4816301 L39.9031199,40.5531993 Z" id="Fill-1" fill="#2760B6" mask="url(#mask-2)"></path>
                    </g>
                    <g id="Group-6" transform="translate(48.000000, 0.000000)">
                        <mask id="mask-4" fill="white">
                            <use xlink:href="#path-3"></use>
                        </mask>
                        <g id="Clip-5"></g>
                        <path d="M10.2953818,22.1128889 C10.2953818,24.0751111 10.6149682,25.8695556 11.2564484,27.4962222 C11.8979287,29.1251111 12.8186144,30.5362222 14.0185056,31.7317778 C15.217243,32.9295556 16.6548049,33.8606667 18.3288838,34.5273333 C20.0052702,35.194 21.8766389,35.5273333 23.9452974,35.5273333 C26.0128022,35.5273333 27.8841709,35.194 29.5594035,34.5273333 C31.2346362,33.8606667 32.6710444,32.9295556 33.8720893,31.7317778 C35.0708267,30.5362222 35.9903586,29.1251111 36.6329927,27.4962222 C37.2733192,25.8695556 37.5940593,24.0751111 37.5940593,22.1128889 C37.5940593,20.1917778 37.2733192,18.4051111 36.6329927,16.7584444 C35.9903586,15.1106667 35.0708267,13.6895556 33.8720893,12.4928889 C32.6710444,11.2973333 31.2346362,10.3651111 29.5594035,9.69733333 C27.8841709,9.03177778 26.0128022,8.69844444 23.9452974,8.69844444 C21.8766389,8.69844444 20.0052702,9.03177778 18.3288838,9.69733333 C16.6548049,10.3651111 15.217243,11.2973333 14.0185056,12.4928889 C12.8186144,13.6895556 11.8979287,15.1106667 11.2564484,16.7584444 C10.6149682,18.4051111 10.2953818,20.1917778 10.2953818,22.1128889 M0.245139592,22.1128889 C0.245139592,18.7784444 0.833547755,15.7573333 2.01267156,13.0517778 C3.19179537,10.3451111 4.83587701,8.04177778 6.94491646,6.13844444 C9.05395592,4.23622222 11.5564212,2.77511111 14.4523124,1.75511111 C17.3470498,0.735111111 20.510609,0.225111111 23.9452974,0.225111111 C27.3776784,0.225111111 30.5412376,0.735111111 33.4371287,1.75511111 C36.3318661,2.77511111 38.8343314,4.23622222 40.9445246,6.13844444 C43.0535641,8.04177778 44.6976457,10.3451111 45.8767695,13.0517778 C47.0558933,15.7573333 47.6454552,18.7784444 47.6454552,22.1128889 C47.6454552,25.4473333 47.0558933,28.4673333 45.8767695,31.1728889 C44.6976457,33.8795556 43.0535641,36.1851111 40.9445246,38.0873333 C38.8343314,39.9906667 36.3318661,41.4506667 33.4371287,42.4695556 C30.5412376,43.4895556 27.3776784,43.9995556 23.9452974,43.9995556 C20.510609,43.9995556 17.3470498,43.4895556 14.4523124,42.4695556 C11.5564212,41.4506667 9.05395592,39.9906667 6.94491646,38.0873333 C4.83587701,36.1851111 3.19179537,33.8795556 2.01267156,31.1728889 C0.833547755,28.4673333 0.245139592,25.4473333 0.245139592,22.1128889" id="Fill-4" fill="#2760B6" mask="url(#mask-4)"></path>
                    </g>
                    <g id="Group-9" transform="translate(106.000000, 2.000000)">
                        <mask id="mask-6" fill="white">
                            <use xlink:href="#path-5"></use>
                        </mask>
                        <g id="Clip-8"></g>
                        <polygon id="Fill-7" fill="#2760B6" mask="url(#mask-6)" points="10.2495221 19.9944944 0.113593975 5.23494382 8.06483013 0.0315730337 21.958247 19.9944944 8.06483013 39.9585393 0.113593975 34.7540449"></polygon>
                    </g>
                    <path d="M122.887356,40.9006066 L122.997701,40.9006066 C123.014253,40.9006066 123.031724,40.8996734 123.050115,40.8978068 C123.068506,40.8959403 123.085977,40.8912739 123.102529,40.8838077 C123.118161,40.8772748 123.131954,40.8660756 123.142989,40.85021 C123.154023,40.8352776 123.158621,40.8138124 123.158621,40.7876808 C123.158621,40.760616 123.154023,40.7391507 123.142989,40.7251517 C123.131954,40.709286 123.118161,40.6980868 123.102529,40.6906206 C123.085977,40.6840877 123.068506,40.6794214 123.050115,40.6775548 C123.031724,40.6756883 123.014253,40.674755 122.997701,40.674755 L122.887356,40.674755 L122.887356,40.9006066 Z M122.616092,40.464769 L122.986667,40.464769 C123.016092,40.464769 123.055632,40.4666356 123.105287,40.4703686 C123.155862,40.4741017 123.204598,40.4871675 123.253333,40.5076995 C123.301149,40.530098 123.343448,40.5636958 123.37931,40.609426 C123.415172,40.6542231 123.433563,40.719552 123.433563,40.8035464 C123.433563,40.8576762 123.426207,40.9015399 123.411494,40.9360709 C123.397701,40.9715352 123.37931,40.9995334 123.356322,41.0228651 C123.334253,41.0443304 123.308506,41.0620625 123.278161,41.0741951 C123.249655,41.0853943 123.21931,41.0928605 123.188966,41.0965936 L123.457471,41.5128325 L123.175172,41.5128325 L122.936092,41.1105926 L122.890115,41.1105926 L122.890115,41.5128325 L122.616092,41.5128325 L122.616092,40.464769 Z M122.274023,40.9995334 C122.274023,41.1040597 122.293333,41.2011199 122.331034,41.294447 C122.368736,41.3868409 122.42023,41.4661689 122.486437,41.535231 C122.553563,41.6024265 122.629885,41.6574895 122.718161,41.6976202 C122.805517,41.7368175 122.90023,41.7573495 123.00046,41.7573495 C123.10069,41.7573495 123.194483,41.7368175 123.282759,41.6976202 C123.370115,41.6574895 123.447356,41.6024265 123.513563,41.535231 C123.57977,41.4661689 123.632184,41.3868409 123.669885,41.294447 C123.707586,41.2011199 123.726897,41.1040597 123.726897,40.9995334 C123.726897,40.8959403 123.707586,40.7979468 123.669885,40.705553 C123.632184,40.6131591 123.57977,40.5328978 123.513563,40.464769 C123.447356,40.3966402 123.370115,40.3425105 123.282759,40.3023798 C123.194483,40.2613159 123.10069,40.2417172 123.00046,40.2417172 C122.90023,40.2417172 122.805517,40.2613159 122.718161,40.3023798 C122.629885,40.3425105 122.553563,40.3966402 122.486437,40.464769 C122.42023,40.5328978 122.368736,40.6131591 122.331034,40.705553 C122.293333,40.7979468 122.274023,40.8959403 122.274023,40.9995334 Z M122,40.9995334 C122,40.8614092 122.026667,40.7316846 122.07908,40.6112926 C122.132414,40.4909006 122.204138,40.3845077 122.294253,40.2949137 C122.385287,40.2043864 122.491034,40.1325245 122.611494,40.079328 C122.732874,40.0261316 122.862529,40 123.00046,40 C123.138391,40 123.268046,40.0261316 123.388506,40.079328 C123.509885,40.1325245 123.615632,40.2043864 123.706667,40.2949137 C123.796782,40.3845077 123.868506,40.4909006 123.921839,40.6112926 C123.974253,40.7316846 124,40.8614092 124,40.9995334 C124,41.1376575 123.974253,41.2673822 123.921839,41.3877741 C123.868506,41.5090994 123.796782,41.6154923 123.706667,41.7050863 C123.615632,41.7956136 123.509885,41.8674755 123.388506,41.920672 C123.268046,41.9729351 123.138391,42 123.00046,42 C122.862529,42 122.732874,41.9729351 122.611494,41.920672 C122.491034,41.8674755 122.385287,41.7956136 122.294253,41.7050863 C122.204138,41.6154923 122.132414,41.5090994 122.07908,41.3877741 C122.026667,41.2673822 122,41.1376575 122,40.9995334 Z" id="Fill-10" fill="#2760B6"></path>
                </g>
            </g>
        </g>
    </g>
</svg>