<?xml version="1.0" encoding="UTF-8"?>
<svg width="355px" height="47px" viewBox="0 0 355 47" version="1.1" xmlns="http://www.w3.org/2000/svg" xmlns:xlink="http://www.w3.org/1999/xlink">
    <!-- Generator: Sketch 50.2 (55047) - http://www.bohemiancoding.com/sketch -->
    <title>logo-unitx</title>
    <desc>Created with Sketch.</desc>
    <defs></defs>
    <g id="WORKING" stroke="none" stroke-width="1" fill="none" fill-rule="evenodd">
        <g id="3.Services-V3" transform="translate(-542.000000, -2138.000000)">
            <g id="UNIT-X" transform="translate(-308.000000, 2138.000000)">
                <g id="UNIT-X---ENGAGE" transform="translate(496.000000, 0.000000)">
                    <g id="Group-7" transform="translate(354.000000, 0.000000)">
                        <g id="logo-unitx">
                            <path d="M180.068555,28.5104471 C180.068555,31.1730353 179.673617,33.6238588 178.882352,35.8643294 C178.091086,38.1048 176.914617,40.0488 175.354336,41.6963294 C173.792664,43.3452706 171.84718,44.6342118 169.515102,45.5631529 C167.183023,46.4920941 164.499117,46.9579765 161.460602,46.9579765 C158.378977,46.9579765 155.67282,46.4920941 153.342133,45.5631529 C151.010055,44.6342118 149.06457,43.3452706 147.504289,41.6963294 C145.942617,40.0488 144.766148,38.1048 143.976273,35.8643294 C143.185008,33.6238588 142.78868,31.1730353 142.78868,28.5104471 L142.78868,0.934447059 L152.530008,0.934447059 L152.530008,28.1292706 C152.530008,29.5255059 152.748336,30.8144471 153.186383,31.9975059 C153.623039,33.1805647 154.237695,34.2055059 155.02757,35.0709176 C155.818836,35.9391529 156.765852,36.6139765 157.870008,37.0996235 C158.972773,37.5866824 160.168711,37.8295059 161.460602,37.8295059 C162.749711,37.8295059 163.935914,37.5866824 165.020602,37.0996235 C166.101117,36.6139765 167.038398,35.9391529 167.829664,35.0709176 C168.62093,34.2055059 169.234195,33.1805647 169.670852,31.9975059 C170.108898,30.8144471 170.327227,29.5255059 170.327227,28.1292706 L170.327227,0.934447059 L180.068555,0.934447059 L180.068555,28.5104471 Z" id="Fill-1" fill="#B3B3B3"></path>
                            <polygon id="Fill-3" fill="#B3B3B3" points="194.056295 0.934164706 207.296436 0.934164706 226.090733 32.1242824 226.215889 32.1242824 226.215889 0.934164706 235.958608 0.934164706 235.958608 45.8169882 223.219092 45.8169882 203.92417 13.8659294 203.799014 13.8659294 203.799014 45.8169882 194.056295 45.8169882"></polygon>
                            <polygon id="Fill-5" fill="#B3B3B3" points="249.820219 45.8164235 259.561547 45.8164235 259.561547 0.9336 249.820219 0.9336"></polygon>
                            <polygon id="Fill-7" fill="#B3B3B3" points="281.978005 9.68188235 269.365036 9.68188235 269.365036 0.934588235 304.333692 0.934588235 304.333692 9.68188235 291.719333 9.68188235 291.719333 45.8174118 281.978005 45.8174118"></polygon>
                            <polygon id="Fill-8" fill="#B3B3B3" points="325.251612 22.3615059 310.640316 0.933741176 322.879206 0.933741176 332.307644 16.6551529 341.363394 0.933741176 353.164237 0.933741176 338.864441 22.1709176 354.851066 45.8165647 342.610784 45.8165647 331.808409 27.7488 321.317534 45.8165647 309.765612 45.8165647"></polygon>
                            <path d="M42.7028953,42.5013176 C39.8103953,44.0090824 36.7913484,45.1003765 33.6457547,45.7695529 C30.5029422,46.4401412 27.2947703,46.7761412 24.0240203,46.7761412 C20.5432859,46.7761412 17.3365047,46.2312 14.4022859,45.1413176 C11.4666766,44.0528471 8.93017656,42.4914353 6.79139531,40.4584941 C4.65400469,38.4241412 2.98664531,35.9620235 1.79209844,33.0693176 C0.597551563,30.1780235 -0.0004171875,26.9507294 -0.0004171875,23.3888471 C-0.0004171875,19.8255529 0.597551563,16.5968471 1.79209844,13.7069647 C2.98664531,10.8142588 4.65400469,8.35355294 6.79139531,6.31778824 C8.93017656,4.28625882 11.4666766,2.72484706 14.4022859,1.63496471 C17.3365047,0.545082353 20.5432859,0.000141176471 24.0240203,0.000141176471 C27.5868016,0.000141176471 30.8686766,0.429317647 33.8668641,1.28908235 C36.8636609,2.14884706 39.4961141,3.62555294 41.7600516,5.72061176 L34.8416922,13.2650824 C33.4997391,11.8829647 31.9895203,10.8354353 30.3124266,10.1210824 C28.6353328,9.41096471 26.5396609,9.05378824 24.0240203,9.05378824 C21.9269578,9.05378824 20.0301453,9.41096471 18.3321922,10.1210824 C16.6342391,10.8354353 15.1768641,11.8307294 13.9614578,13.1083765 C12.7460516,14.3874353 11.8129422,15.9064941 11.1635203,17.6669647 C10.5127078,19.4260235 10.1886922,21.3347294 10.1886922,23.3888471 C10.1886922,25.4839059 10.5127078,27.4024941 11.1635203,29.1403765 C11.8129422,30.8810824 12.7460516,32.3888471 13.9614578,33.6679059 C15.1768641,34.9455529 16.6342391,35.9422588 18.3321922,36.6537882 C20.0301453,37.3667294 21.9269578,37.7224941 24.0240203,37.7224941 C26.1628016,37.7224941 28.0081609,37.4810824 29.5587078,36.9996706 C31.1092547,36.5182588 32.3469109,36.0255529 33.2688953,35.5229647 L33.2688953,28.2919059 L25.2825359,28.2919059 L25.2825359,19.2382588 L42.7028953,19.2382588 L42.7028953,42.5013176 Z" id="Fill-9" fill="#000000"></path>
                            <path d="M61.1890297,23.3887059 C61.1890297,25.4837647 61.5130453,27.4023529 62.1638578,29.1402353 C62.8132797,30.8809412 63.7449984,32.3887059 64.9617953,33.6677647 C66.1772016,34.9468235 67.6345766,35.9421176 69.3325297,36.6536471 C71.0318734,37.3665882 72.9272953,37.7223529 75.0243578,37.7223529 C77.1214203,37.7223529 79.0182328,37.3665882 80.7161859,36.6536471 C82.4141391,35.9421176 83.8715141,34.9468235 85.0869203,33.6677647 C86.3037172,32.3887059 87.2354359,30.8809412 87.8862484,29.1402353 C88.5356703,27.4023529 88.8596859,25.4837647 88.8596859,23.3887059 C88.8596859,21.3345882 88.5356703,19.4258824 87.8862484,17.6668235 C87.2354359,15.9063529 86.3037172,14.3872941 85.0869203,13.1082353 C83.8715141,11.8305882 82.4141391,10.8352941 80.7161859,10.1223529 C79.0182328,9.41082353 77.1214203,9.05364706 75.0243578,9.05364706 C72.9272953,9.05364706 71.0318734,9.41082353 69.3325297,10.1223529 C67.6345766,10.8352941 66.1772016,11.8305882 64.9617953,13.1082353 C63.7449984,14.3872941 62.8132797,15.9063529 62.1638578,17.6668235 C61.5130453,19.4258824 61.1890297,21.3345882 61.1890297,23.3887059 M50.9999203,23.3887059 C50.9999203,19.8268235 51.5978891,16.5967059 52.7924359,13.7068235 C53.9883734,10.8141176 55.6543422,8.35341176 57.7931234,6.31764706 C59.9305141,4.28611765 62.4670141,2.72470588 65.4026234,1.63482353 C68.3368422,0.544941176 71.5436234,7.10542736e-15 75.0243578,7.10542736e-15 C78.5037016,7.10542736e-15 81.7118734,0.544941176 84.6474828,1.63482353 C87.5817016,2.72470588 90.1182016,4.28611765 92.2569828,6.31764706 C94.3943734,8.35341176 96.0617328,10.8141176 97.2576703,13.7068235 C98.4508266,16.5967059 99.0501859,19.8268235 99.0501859,23.3887059 C99.0501859,26.9505882 98.4508266,30.1778824 97.2576703,33.0691765 C96.0617328,35.9618824 94.3943734,38.424 92.2569828,40.4583529 C90.1182016,42.4912941 87.5817016,44.0527059 84.6474828,45.1411765 C81.7118734,46.2310588 78.5037016,46.776 75.0243578,46.776 C71.5436234,46.776 68.3368422,46.2310588 65.4026234,45.1411765 C62.4670141,44.0527059 59.9305141,42.4912941 57.7931234,40.4583529 C55.6543422,38.424 53.9883734,35.9618824 52.7924359,33.0691765 C51.5978891,30.1778824 50.9999203,26.9505882 50.9999203,23.3887059" id="Fill-10" fill="#000000"></path>
                            <polygon id="Fill-11" fill="#0054FF" points="120.270289 23.2617882 109.810008 7.66602353 118.016086 2.1672 132.35482 23.2617882 118.016086 44.3563765 109.810008 38.8589647"></polygon>
                        </g>
                    </g>
                </g>
            </g>
        </g>
    </g>
</svg>