<?xml version="1.0" standalone="no"?>
<!DOCTYPE svg PUBLIC "-//W3C//DTD SVG 20010904//EN"
 "http://www.w3.org/TR/2001/REC-SVG-20010904/DTD/svg10.dtd">
<svg version="1.0" xmlns="http://www.w3.org/2000/svg"
 width="400.000000pt" height="400.000000pt" viewBox="0 0 400.000000 400.000000"
 preserveAspectRatio="xMidYMid meet">
<metadata>
Created by potrace 1.11, written by Peter Selinger 2001-2013
</metadata>
<g transform="translate(0.000000,400.000000) scale(0.100000,-0.100000)"
fill="#000000" stroke="none">
<path d="M1405 3808 c-159 -104 -338 -221 -398 -259 l-107 -71 63 -91 c35 -51
84 -121 109 -157 89 -130 346 -503 595 -862 l254 -367 -53 -77 c-29 -42 -60
-85 -68 -97 -17 -25 -251 -364 -332 -482 -30 -44 -140 -204 -245 -355 -104
-151 -220 -319 -257 -372 l-67 -97 39 -25 c21 -13 110 -71 198 -128 87 -57
204 -133 259 -168 54 -36 144 -95 200 -132 l100 -66 20 22 c11 12 25 30 30 39
8 14 659 944 701 1002 11 15 222 317 304 435 6 8 67 96 137 195 69 99 145 209
169 244 l44 63 -33 47 c-52 73 -128 180 -401 571 -140 201 -260 372 -266 380
-6 8 -67 96 -136 195 -69 99 -132 189 -140 200 -8 11 -102 146 -210 300 -107
154 -200 285 -207 291 -9 9 -83 -35 -302 -178z"/>
</g>
</svg>
